<svg width="21" height="24" viewBox="0 0 21 24" fill="none" xmlns="http://www.w3.org/2000/svg">
<path fill-rule="evenodd" clip-rule="evenodd" d="M18 24H3.158C3.13 24 3.107 23.986 3.079 23.984C3.052 23.986 3.028 24 3 24C2.448 24 2 23.553 2 23V19H1C0.448 19 0 18.553 0 18C0 17.448 0.448 17 1 17H2V13H1C0.448 13 0 12.553 0 12C0 11.447 0.448 11 1 11H2V7H1C0.448 7 0 6.553 0 6C0 5.447 0.448 5 1 5H2V1C2 0.447 2.448 0 3 0C3.028 0 3.052 0.014 3.079 0.016C3.107 0.014 3.13 0 3.158 0H18C19.654 0 21 1.346 21 3V21C21 22.654 19.654 24 18 24ZM4 5C4.552 5 5 5.447 5 6C5 6.553 4.552 7 4 7V11C4.552 11 5 11.447 5 12C5 12.553 4.552 13 4 13V17C4.552 17 5 17.448 5 18C5 18.553 4.552 19 4 19V22H15V2H4V5ZM19 3C19 2.448 18.551 2 18 2H17V22H18C18.551 22 19 21.552 19 21V3Z" fill="#4671AF"/>
</svg>
