<svg width="24" height="22" viewBox="0 0 24 22" fill="none" xmlns="http://www.w3.org/2000/svg">
<path fill-rule="evenodd" clip-rule="evenodd" d="M23 17.953H22C21.447 17.953 21 17.507 21 16.956C21 16.406 21.447 15.959 22 15.959V1.995H2V16.033H10C10.553 16.033 11 16.406 11 16.956C11 17.507 10.553 17.953 10 17.953H1C0.447 17.953 0 17.507 0 16.956V0.998C0 0.447 0.447 0 1 0H23C23.553 0 24 0.447 24 0.998V16.956C24 17.507 23.553 17.953 23 17.953ZM7 10.972C6.447 10.972 6 10.525 6 9.974C6 9.423 6.447 9.033 7 9.033H11C11.553 9.033 12 9.423 12 9.974C12 10.525 11.553 10.972 11 10.972H7ZM16 9.974C18.206 9.974 20 11.764 20 13.964C20 14.967 19.615 15.873 19 16.575V20.946C19 21.321 18.788 21.666 18.452 21.836C18.31 21.908 18.154 21.943 18 21.943C17.791 21.943 17.583 21.878 17.408 21.75L16 20.72L14.592 21.75C14.289 21.973 13.884 22.005 13.548 21.836C13.212 21.666 13 21.321 13 20.946V16.575C12.385 15.873 12 14.967 12 13.964C12 11.764 13.794 9.974 16 9.974ZM16 11.969C14.897 11.969 14 12.864 14 13.964C14 15.064 14.897 15.959 16 15.959C17.102 15.959 18 15.064 18 13.964C18 12.864 17.102 11.969 16 11.969ZM15.408 18.679C15.762 18.421 16.238 18.421 16.592 18.679L17 18.977V17.812C16.679 17.895 16.347 17.953 16 17.953C15.653 17.953 15.322 17.895 15 17.812V18.977L15.408 18.679ZM4 6.982C3.447 6.982 3 6.535 3 5.985C3 5.434 3.447 5.033 4 5.033H20C20.553 5.033 21 5.434 21 5.985C21 6.535 20.553 6.982 20 6.982H4Z" fill="#4671AF"/>
</svg>
