<svg width="40" height="40" viewBox="0 0 40 40" fill="none" xmlns="http://www.w3.org/2000/svg">
<circle cx="20" cy="20" r="20" fill="#E2E9F3"/>
<path fill-rule="evenodd" clip-rule="evenodd" d="M23.584 12H16.4151C15.2442 12.0016 14.1217 12.4678 13.294 13.296C12.4663 14.1242 12.0009 15.2468 12 16.4178V23.5822C12.0009 24.7532 12.4663 25.8758 13.294 26.704C14.1217 27.5322 15.2442 27.9984 16.4151 28H23.584C24.755 27.9984 25.8775 27.5324 26.7054 26.7042C27.5333 25.876 27.9988 24.7532 28 23.5822V16.4178C27.9988 15.2468 27.5333 14.124 26.7054 13.2958C25.8775 12.4676 24.755 12.0016 23.584 12ZM26.5805 23.5822C26.5798 24.3765 26.2639 25.138 25.7023 25.6997C25.1407 26.2613 24.3791 26.577 23.5849 26.5777H16.4151C15.6209 26.577 14.8593 26.2613 14.2977 25.6997C13.7361 25.138 13.4202 24.3765 13.4195 23.5822V16.4178C13.4202 15.6235 13.7361 14.862 14.2977 14.3003C14.8593 13.7387 15.6209 13.423 16.4151 13.4223H23.584C24.3784 13.4228 25.1402 13.7385 25.702 14.3001C26.2638 14.8618 26.5798 15.6233 26.5805 16.4178V23.5822ZM20.0027 15.8757C19.1868 15.8753 18.3893 16.1169 17.7108 16.5699C17.0323 17.0229 16.5034 17.6667 16.1909 18.4204C15.8785 19.174 15.7965 20.0034 15.9555 20.8036C16.1144 21.6038 16.5071 22.3388 17.0838 22.9158C17.6606 23.4928 18.3955 23.8859 19.1956 24.0451C19.9957 24.2044 20.8251 24.1229 21.5788 23.8108C22.3326 23.4986 22.9768 22.97 23.4301 22.2917C23.8834 21.6134 24.1253 20.8158 24.1253 20C24.1246 18.9062 23.6897 17.8573 22.9162 17.084C22.1427 16.3106 21.0938 15.8761 20 15.8757H20.0027ZM20.0027 22.7023C19.4682 22.7021 18.9459 22.5433 18.5016 22.2463C18.0574 21.9493 17.7112 21.5272 17.5068 21.0334C17.3024 20.5396 17.249 19.9963 17.3534 19.4722C17.4577 18.9481 17.7152 18.4668 18.0931 18.089C18.471 17.7112 18.9525 17.4538 19.4767 17.3496C20.0009 17.2454 20.5442 17.2989 21.0379 17.5035C21.5316 17.708 21.9535 18.0546 22.2504 18.4989C22.5473 18.9433 22.7058 19.4656 22.7058 20C22.7057 20.3551 22.6356 20.7067 22.4995 21.0347C22.3634 21.3628 22.1641 21.6607 21.9128 21.9117C21.6615 22.1626 21.3633 22.3618 21.035 22.4974C20.7068 22.633 20.3551 22.7026 20 22.7023H20.0027ZM24.2987 14.6756C24.1621 14.6751 24.0269 14.7016 23.9006 14.7535C23.7743 14.8053 23.6594 14.8816 23.5627 14.9779C23.4657 15.0747 23.3888 15.1896 23.3363 15.3162C23.2838 15.4428 23.2568 15.5785 23.2568 15.7155C23.2568 15.8525 23.2838 15.9882 23.3363 16.1148C23.3888 16.2414 23.4657 16.3565 23.5627 16.4533C23.7587 16.647 24.0231 16.7556 24.2987 16.7556C24.5742 16.7556 24.8387 16.647 25.0347 16.4533C25.2299 16.2574 25.3395 15.9921 25.3395 15.7155C25.3395 15.4389 25.2299 15.1738 25.0347 14.9779C24.9376 14.8812 24.8224 14.8047 24.6956 14.7528C24.5688 14.7009 24.433 14.6746 24.296 14.6756H24.2987Z" fill="#455468"/>
</svg>
