<svg width="13" height="16" viewBox="0 0 13 16" fill="none" xmlns="http://www.w3.org/2000/svg">
<path d="M0 6.4C0 2.86538 2.91015 0 6.5 0C10.0899 0 13 2.86538 13 6.4C13 7.6735 12.5123 8.84871 11.6299 10.065C11.1739 10.6935 9.68322 12.5616 7.13455 15.6996C6.80929 16.1001 6.19071 16.1001 5.86545 15.6996C3.31678 12.5616 1.82608 10.6935 1.3701 10.065C0.487723 8.84871 0 7.6735 0 6.4ZM10.3076 9.135C11.0106 8.16599 11.375 7.28789 11.375 6.4C11.375 3.74903 9.19239 1.6 6.5 1.6C3.80761 1.6 1.625 3.74903 1.625 6.4C1.625 7.28789 1.98942 8.16599 2.6924 9.135C3.08563 9.67704 4.36074 11.2792 6.5 13.9183C8.63926 11.2792 9.91437 9.67704 10.3076 9.135ZM6.5 8.8C5.15381 8.8 4.0625 7.72548 4.0625 6.4C4.0625 5.07452 5.15381 4 6.5 4C7.84619 4 8.9375 5.07452 8.9375 6.4C8.9375 7.72548 7.84619 8.8 6.5 8.8ZM6.5 7.2C6.94873 7.2 7.3125 6.84183 7.3125 6.4C7.3125 5.95817 6.94873 5.6 6.5 5.6C6.05127 5.6 5.6875 5.95817 5.6875 6.4C5.6875 6.84183 6.05127 7.2 6.5 7.2Z" fill="#4671AF"/>
</svg>
