<svg width="24" height="24" viewBox="0 0 24 24" fill="none" xmlns="http://www.w3.org/2000/svg">
<path fill-rule="evenodd" clip-rule="evenodd" d="M23.932 1.00406C23.911 0.757642 23.8031 0.526716 23.6274 0.352657C23.4517 0.178597 23.2198 0.0727341 22.9732 0.0540769C16.3857 -0.45723 11.6406 2.72488 8.70932 6.74006C7.89261 6.4789 7.03 6.39292 6.1778 6.48774C5.32561 6.58255 4.503 6.85592 3.76366 7.2902C2.15349 8.24087 0.874344 9.66341 0.0993897 11.3651C0.00614449 11.5629 -0.0224491 11.785 0.0176715 11.9999C0.0577921 12.2149 0.164584 12.4117 0.322897 12.5625C0.48121 12.7133 0.682998 12.8105 0.899629 12.8402C1.11626 12.8698 1.33673 12.8305 1.52975 12.7277C3.20019 11.8505 5.08111 12.0166 6.21066 13.1404L10.8098 17.724C10.8181 17.7318 10.8239 17.7422 10.8327 17.7525C11.9609 18.8764 12.127 20.7503 11.2459 22.4114C11.1618 22.5703 11.1203 22.7482 11.1253 22.9279C11.1304 23.1076 11.1819 23.2829 11.2747 23.4368C11.3676 23.5907 11.4988 23.7179 11.6554 23.8061C11.812 23.8943 11.9888 23.9406 12.1686 23.9402C12.3218 23.9395 12.4732 23.9058 12.6124 23.8415C14.3164 23.0711 15.7431 21.7966 16.6997 20.1897C17.1388 19.4496 17.4145 18.6241 17.5085 17.7686C17.6025 16.9132 17.5126 16.0476 17.2448 15.2298C18.3982 14.4126 19.4496 13.4602 20.3765 12.3929C23.1061 9.21348 24.3029 5.38261 23.932 1.00406ZM3.49867 10.0907C4.60849 8.98505 6.03315 8.32319 7.51723 8.58274C7.11801 9.28631 6.76194 10.0136 6.45101 10.7604C5.54362 10.2795 4.52473 10.0484 3.49867 10.0907V10.0907ZM13.8914 20.4545C13.9332 19.4209 13.6957 18.3952 13.2039 17.4853C13.9553 17.1677 14.6878 16.8072 15.3978 16.4055C15.6787 17.9005 15.0129 19.3358 13.8914 20.4545V20.4545ZM11.8278 15.7955L8.15026 12.1308C9.99304 7.20725 14.5712 1.9436 21.9041 2.08635C22.1507 10.8045 14.9353 14.5783 11.8278 15.7955V15.7955ZM18.5687 5.42674C18.7259 5.58358 18.8506 5.76989 18.9356 5.97498C19.0207 6.18007 19.0645 6.39991 19.0645 6.62194C19.0645 6.84398 19.0207 7.06382 18.9356 7.26891C18.8506 7.474 18.7259 7.66031 18.5687 7.81715C18.4116 7.9751 18.2249 8.10041 18.0192 8.18594C17.8136 8.27147 17.593 8.31546 17.3703 8.31546C17.1475 8.31546 16.927 8.27147 16.7213 8.18594C16.5156 8.10041 16.3289 7.9751 16.1718 7.81715C15.8548 7.4993 15.6771 7.06856 15.6777 6.61966C15.6783 6.17076 15.8572 5.74043 16.175 5.42344C16.4929 5.10645 16.9237 4.92871 17.3726 4.92932C17.8215 4.92993 18.2517 5.10889 18.5687 5.42674V5.42674ZM3.88021 16.2342C2.6811 17.4281 2.63438 19.8212 2.63672 20.2858C2.6373 20.5621 2.74646 20.8272 2.94067 21.0239C3.13487 21.2205 3.39856 21.3329 3.6749 21.3369H3.70864C4.24591 21.3369 6.5512 21.2512 7.72357 20.0833C7.99878 19.8296 8.21997 19.523 8.37387 19.1818C8.52778 18.8406 8.61124 18.4719 8.61926 18.0977C8.61271 17.7388 8.53511 17.3848 8.39095 17.056C8.24679 16.7272 8.03893 16.4303 7.77936 16.1823C6.45775 14.8664 4.83222 15.2842 3.88021 16.2342V16.2342ZM6.24778 18.5935C5.99109 18.8479 5.41386 19.0218 4.82494 19.123C4.92695 18.5286 5.10473 17.9551 5.35494 17.7059C5.48118 17.5489 5.6637 17.4473 5.86365 17.4229C5.94874 17.4295 6.03164 17.4531 6.10744 17.4924C6.18323 17.5316 6.25037 17.5857 6.30489 17.6514C6.43415 17.7631 6.5157 17.92 6.53276 18.09C6.50119 18.2866 6.40005 18.4653 6.24778 18.5935V18.5935Z" fill="#4671AF"/>
</svg>
