<svg width="40" height="40" viewBox="0 0 40 40" fill="none" xmlns="http://www.w3.org/2000/svg">
<circle cx="20" cy="20" r="20" fill="#E2E9F3"/>
<path fill-rule="evenodd" clip-rule="evenodd" d="M28 14.6624C27.407 14.9476 26.77 15.134 26.115 15.2138C26.8154 14.752 27.3269 14.0606 27.5583 13.2625C26.9221 13.6702 26.2159 13.9608 25.4742 14.12C25.1802 13.7737 24.8135 13.4941 24.3992 13.3008C23.985 13.1074 23.533 13.0048 23.0746 13C22.1639 13.0422 21.3073 13.4379 20.6922 14.1004C20.0771 14.7629 19.7536 15.6383 19.7925 16.535C19.7915 16.8056 19.8198 17.0754 19.8769 17.34C18.5426 17.2538 17.2442 16.878 16.0747 16.2396C14.9053 15.6012 13.8938 14.716 13.1127 13.6475C12.8187 14.1947 12.6661 14.8047 12.6683 15.4238C12.6605 15.9935 12.7886 16.557 13.0422 17.0691C13.2958 17.5812 13.6679 18.0276 14.1285 18.3724C13.6033 18.3471 13.0927 18.1939 12.6426 17.9264C12.6426 17.9439 12.6426 17.9524 12.6426 17.9699C12.6176 18.7559 12.8646 19.5268 13.343 20.1564C13.8215 20.7859 14.503 21.2367 15.2759 21.4349C14.995 21.5158 14.7038 21.5571 14.4112 21.5575C14.2036 21.5594 13.9965 21.5388 13.7935 21.4962C13.9742 22.173 14.3684 22.7757 14.9195 23.2176C15.4706 23.6595 16.1499 23.9178 16.8596 23.955C15.7293 24.9243 14.2828 25.4615 12.7839 25.4688C12.5217 25.469 12.2598 25.4514 12 25.4162C13.4715 26.4413 15.2285 26.9945 17.0312 27C23.0684 27 26.3692 21.6188 26.3692 16.9463C26.3692 16.7975 26.3692 16.64 26.3603 16.4912C27.0121 15.9816 27.5672 15.3624 28 14.6624Z" fill="#455468"/>
</svg>
