<svg width="40" height="40" viewBox="0 0 40 40" fill="none" xmlns="http://www.w3.org/2000/svg">
<circle cx="20" cy="20" r="20" fill="#E2E9F3"/>
<path fill-rule="evenodd" clip-rule="evenodd" d="M19.8252 24.9896H20.782C20.9453 24.9679 21.0979 24.8939 21.2186 24.7784C21.3074 24.6432 21.3533 24.4829 21.3502 24.3196C21.3502 24.3196 21.3315 22.8976 21.9273 22.6957C22.5231 22.4938 23.2691 24.0536 24.0685 24.65C24.2132 24.7809 24.383 24.8787 24.5669 24.9372C24.7508 24.9957 24.9445 25.0137 25.1355 24.9896H27.2696C27.2696 24.9896 28.3874 24.8977 27.8574 23.9343C27.4383 23.1789 26.9014 22.5 26.2684 21.9249C24.9275 20.5577 25.1071 20.7778 26.7219 18.4288C27.7053 16.9882 28.0984 16.1166 27.9757 15.7404C27.8715 15.6232 27.7404 15.5348 27.5945 15.4834C27.4486 15.4321 27.2926 15.4195 27.1407 15.4467H24.7283C24.621 15.4376 24.5135 15.4599 24.418 15.511C24.3226 15.591 24.2493 15.6955 24.2054 15.8139C23.9603 16.5273 23.663 17.2206 23.3162 17.8876C22.2447 19.8879 21.8161 19.9888 21.641 19.8603C21.2328 19.5759 21.3351 18.7042 21.3351 18.0894C21.3351 16.1625 21.6018 15.3549 20.814 15.1438C20.4466 15.0519 20.0688 15.0119 19.691 15.0247C19.0176 14.956 18.3379 15.031 17.6938 15.2449C17.4199 15.3917 17.2083 15.722 17.3381 15.7404C17.4757 15.7521 17.6095 15.7922 17.7318 15.8585C17.854 15.9247 17.962 16.0155 18.0495 16.1257C18.2158 16.4994 18.2973 16.9075 18.2878 17.3186C18.2878 17.3186 18.4292 19.5942 17.9561 19.8787C17.6324 20.0714 17.187 19.6769 16.2319 17.8692C15.9044 17.2315 15.6171 16.5724 15.3721 15.8963C15.3269 15.785 15.2593 15.6849 15.1738 15.6026C15.0626 15.5247 14.9369 15.4717 14.8048 15.4467H12.5177C12.3464 15.4469 12.1804 15.5085 12.0482 15.621C12.018 15.69 12.0016 15.7646 12.0001 15.8403C11.9986 15.916 12.0119 15.9912 12.0393 16.0614C12.0393 16.0614 13.8293 20.6861 15.8567 22.9983C16.3451 23.5997 16.9511 24.088 17.635 24.4312C18.3188 24.7743 19.0652 24.9646 19.8252 24.9896Z" fill="#455468"/>
</svg>
